HIERARCHY
ROOT Hips
{
	OFFSET -0.179506 -22.333345 2.821913
	CHANNELS 6 Xposition Yposition Zposition Zrotation Yrotation Xrotation 
	JOINT LeftUpLeg
	{
		OFFSET 6.951974 -9.140623 -0.681533
		CHANNELS 3 Zrotation Yrotation Xrotation
		JOINT LeftLeg
		{
			OFFSET 3.427654 -37.519855 -0.449580
			CHANNELS 3 Zrotation Yrotation Xrotation
			JOINT LeftFoot
			{
				OFFSET -1.359570 -39.796059 -4.369333
				CHANNELS 3 Zrotation Yrotation Xrotation
				JOINT LeftToe
				{
					OFFSET 2.635814 -5.579078 11.928840
					CHANNELS 3 Zrotation Yrotation Xrotation
					End Site
					{
						OFFSET 0.000000 0.000000 0.000000
					}
				}
			}
		}
	}
	JOINT RightUpLeg
	{
		OFFSET -6.767048 -9.052170 -0.431982
		CHANNELS 3 Zrotation Yrotation Xrotation
		JOINT RightLeg
		{
			OFFSET -3.829005 -38.256897 -0.885003
			CHANNELS 3 Zrotation Yrotation Xrotation
			JOINT RightFoot
			{
				OFFSET 1.577377 -39.841461 -4.231180
				CHANNELS 3 Zrotation Yrotation Xrotation
				JOINT RightToe
				{
					OFFSET -2.537174 -4.814398 12.334795
					CHANNELS 3 Zrotation Yrotation Xrotation
					End Site
					{
						OFFSET 0.000000 0.000000 0.000000
					}
				}
			}
		}
	}
	JOINT Spine
	{
		OFFSET -0.253288 10.896323 -2.669631
		CHANNELS 3 Zrotation Yrotation Xrotation
		JOINT Spine1
		{
			OFFSET 0.548704 13.518043 0.109247
			CHANNELS 3 Zrotation Yrotation Xrotation
			JOINT Spine2
			{
				OFFSET 0.145701 5.292222 2.542457
				CHANNELS 3 Zrotation Yrotation Xrotation
				JOINT Neck
				{
					OFFSET -0.277840 21.387037 -4.285703
					CHANNELS 3 Zrotation Yrotation Xrotation
					JOINT Head
					{
						OFFSET 0.515184 6.496960 5.134897
						CHANNELS 3 Zrotation Yrotation Xrotation
						End Site
						{
							OFFSET 0.000000 0.000000 0.000000
						}
					}
				}
				JOINT LeftShoulder
				{
					OFFSET 7.884473 12.174932 -3.408961
					CHANNELS 3 Zrotation Yrotation Xrotation
					JOINT LeftArm
					{
						OFFSET 9.097692 3.046888 -0.886815
						CHANNELS 3 Zrotation Yrotation Xrotation
						JOINT LeftForeArm
						{
							OFFSET 25.961220 -1.277207 -2.745643
							CHANNELS 3 Zrotation Yrotation Xrotation
							JOINT LeftHand
							{
								OFFSET 24.923361 0.898606 -0.117091
								CHANNELS 3 Zrotation Yrotation Xrotation
								End Site
								{
									OFFSET 0.000000 0.000000 0.000000
								}
							}
						}
					}
				}
				JOINT RightShoulder
				{
					OFFSET -8.175920 11.883285 -3.861528
					CHANNELS 3 Zrotation Yrotation Xrotation
					JOINT RightArm
					{
						OFFSET -9.601238 3.255117 -0.914307
						CHANNELS 3 Zrotation Yrotation Xrotation
						JOINT RightForeArm
						{
							OFFSET -25.374195 -1.332924 -2.140099
							CHANNELS 3 Zrotation Yrotation Xrotation
							JOINT RightHand
							{
								OFFSET -25.529810 0.777228 -0.555919
								CHANNELS 3 Zrotation Yrotation Xrotation
								End Site
								{
									OFFSET 0.000000 0.000000 0.000000
								}
							}
						}
					}
				}
			}
		}
	}
}
MOTION
Frames: 6
Frame Time: 0.033333
58.565495 -172.805954 82.671135 -179.424583 -6.386562 79.985519 28.530557 4.756582 -0.629623 -3.124896 -4.911949 24.284588 -7.409360 8.208763 -1.270623 nan nan nan -24.752850 -2.800504 -12.593466 6.171448 1.771134 51.657999 1.354238 3.176463 -36.172957 nan nan nan -1.315601 -1.266122 15.089749 2.362994 -2.570777 8.527966 -0.137624 -1.764876 -4.896742 0.533869 8.840912 -1.546523 -5.884009 -3.156734 10.328008 -29.651498 -2.692440 2.226777 -39.840448 -1.777458 3.273050 4.875006 -26.793209 2.167402 -0.956495 -12.951889 -5.369371 32.727359 9.278365 4.232602 44.012259 3.166468 8.583009 -11.200569 33.354479 -9.828689 -4.619900 14.216102 2.296230 
59.215462 -172.878693 82.838593 -179.564722 -6.602439 80.183779 28.176692 4.689144 -0.474795 -3.278037 -5.260173 23.608010 -7.076700 8.201154 -2.271591 nan nan nan -24.296976 -2.638979 -12.946008 6.147533 1.981378 51.719441 1.420678 2.821625 -36.183331 nan nan nan -1.289534 -1.430689 15.225964 2.218395 -2.449964 7.969853 -0.188667 -1.681871 -4.592071 0.407546 8.628355 -1.503878 -5.706900 -2.926205 10.188011 -29.649344 -2.549948 1.990289 -39.823571 -1.729166 3.448785 4.806540 -27.163864 2.497954 -0.944135 -12.706443 -5.340999 32.564327 9.235534 4.185761 44.039733 2.991477 8.641444 -11.131498 33.594130 -9.990453 -4.410887 14.133272 2.577816 
59.827755 -172.955658 83.009514 -179.662531 -6.827877 80.332420 27.729153 4.483876 -0.329738 -3.487925 -5.646776 23.057112 -6.615985 8.247370 -3.458246 nan nan nan -23.923197 -2.488119 -13.200273 6.110509 2.109696 51.698292 1.493398 2.498313 -36.154187 nan nan nan -1.243933 -1.573822 15.461765 2.066639 -2.376159 7.401146 -0.240404 -1.622496 -4.319159 0.267580 8.388163 -1.421388 -5.550919 -2.811503 9.992812 -29.593678 -2.384170 1.739791 -39.857269 -1.745045 3.718324 4.768837 -27.421494 3.091307 -0.894136 -12.435061 -5.766815 32.405768 9.164592 4.103012 43.975120 2.900260 8.735742 -10.827201 33.800394 -9.631164 -4.404035 13.891609 2.320151 
60.412117 -173.057999 83.199188 -179.693150 -6.988140 80.367930 27.257650 4.399469 -0.276845 -3.579300 -5.765574 22.663507 -6.396034 7.900461 -4.317243 nan nan nan -23.559124 -2.336612 -13.265694 6.030232 2.120912 51.547937 1.503388 2.321777 -36.048232 nan nan nan -1.081381 -1.710073 15.743207 1.932668 -2.338468 7.179745 -0.345133 -1.596760 -4.212057 0.168742 8.360734 -1.560253 -5.565105 -2.793696 9.905726 -29.548281 -2.319779 1.578691 -39.949154 -1.883966 3.982863 4.901622 -27.609365 3.432594 -0.760024 -12.571315 -6.086163 32.191693 9.157383 3.989195 44.025863 2.900906 8.846911 -10.702571 33.852535 -9.467531 -4.373340 13.895582 1.742632 
60.991405 -173.162308 83.406555 -179.757122 -7.156068 80.443954 26.701688 4.453031 -0.344717 -3.500322 -5.513752 22.438907 -6.576693 7.531961 -4.887005 nan nan nan -23.224104 -2.189823 -13.319916 5.906469 2.094197 51.296514 1.598891 2.370882 -35.875842 nan nan nan -0.959207 -1.769445 15.896749 1.857698 -2.301626 7.118639 -0.423656 -1.600731 -4.156068 0.115705 8.371237 -1.579845 -5.610872 -2.752044 9.591289 -29.581246 -2.363176 1.604568 -40.109819 -1.982210 4.124789 5.379902 -27.899004 3.239301 -0.818241 -12.910069 -6.005832 32.015916 9.218774 3.999873 44.054844 2.896069 8.975252 -10.846055 33.934891 -9.471900 -4.149956 13.931546 1.473162 
61.576653 -173.260086 83.627213 -179.891248 -7.319885 80.548582 26.112096 4.474972 -0.355548 -3.413096 -5.172592 22.224085 -6.591738 7.495058 -5.537476 nan nan nan -22.835171 -2.012746 -13.389271 5.760387 2.154789 50.980002 1.687192 2.393013 -35.668293 nan nan nan -0.913567 -1.766216 16.127865 1.801489 -2.207898 6.872967 -0.403056 -1.602218 -4.082532 0.080344 8.256986 -1.624582 -5.636736 -2.607370 9.446650 -29.691204 -2.416247 1.587574 -40.159711 -1.946715 4.182549 5.650412 -28.296377 2.970686 -0.932941 -13.063885 -5.530707 31.844947 9.246114 3.989910 44.008231 2.821357 9.095321 -10.863822 33.997767 -9.434102 -4.112129 13.863130 1.615536 
